<svg version="1.0" xmlns="http://www.w3.org/2000/svg"
 viewBox="0 0 512.000000 512.000000"
 preserveAspectRatio="xMidYMid meet">

<g transform="translate(0.000000,512.000000) scale(0.100000,-0.100000)"
fill="#4A90E2" stroke="none">
<path d="M470 5104 c-266 -57 -470 -311 -470 -584 0 -324 276 -600 600 -600
276 0 528 205 585 475 43 204 -16 397 -164 546 -149 149 -347 207 -551 163z
m236 -416 c19 -13 47 -41 62 -62 23 -33 27 -50 27 -106 0 -56 -4 -73 -27 -106
-46 -65 -91 -89 -168 -89 -54 0 -73 5 -103 25 -77 52 -111 140 -88 227 13 48
79 119 125 133 49 15 133 4 172 -22z"/>
<path d="M2430 5104 c-266 -57 -470 -311 -470 -584 0 -324 276 -600 600 -600
276 0 528 205 585 475 43 204 -16 397 -164 546 -149 149 -347 207 -551 163z
m236 -416 c19 -13 47 -41 62 -62 23 -33 27 -50 27 -106 0 -56 -4 -73 -27 -106
-46 -65 -91 -89 -168 -89 -54 0 -73 5 -103 25 -77 52 -111 140 -88 227 13 48
79 119 125 133 49 15 133 4 172 -22z"/>
<path d="M4390 5104 c-266 -57 -470 -311 -470 -584 0 -324 276 -600 600 -600
276 0 528 205 585 475 43 204 -16 397 -164 546 -149 149 -347 207 -551 163z
m236 -416 c19 -13 47 -41 62 -62 23 -33 27 -50 27 -106 0 -56 -4 -73 -27 -106
-46 -65 -91 -89 -168 -89 -54 0 -73 5 -103 25 -77 52 -111 140 -88 227 13 48
79 119 125 133 49 15 133 4 172 -22z"/>
<path d="M470 3714 c-223 -48 -409 -237 -456 -463 -13 -63 -15 -168 -12 -700
l3 -626 23 -65 c69 -192 206 -329 392 -390 36 -12 76 -29 90 -37 32 -18 67
-69 80 -114 6 -20 10 -290 10 -676 l0 -643 200 0 201 0 -4 693 c-2 380 -7 705
-12 720 l-8 29 150 -4 c144 -3 151 -4 189 -30 21 -15 50 -44 64 -65 l25 -37 3
-653 3 -653 199 0 200 0 0 648 c0 530 -3 660 -15 717 -43 204 -202 379 -405
447 -61 20 -90 22 -455 27 -386 6 -390 6 -431 29 -49 29 -91 90 -99 146 -3 22
-5 298 -3 611 l3 570 29 43 c16 23 44 51 62 62 38 24 116 36 169 26 50 -10
123 -84 163 -166 17 -36 93 -251 169 -477 l138 -413 1425 0 1425 0 138 413
c76 226 152 441 169 477 40 82 113 156 163 166 53 10 131 -2 169 -26 18 -11
46 -39 62 -62 l29 -43 3 -570 c2 -313 0 -589 -3 -611 -8 -56 -50 -117 -99
-146 -41 -23 -46 -23 -426 -29 -360 -5 -389 -7 -450 -27 -203 -68 -362 -243
-405 -447 -12 -57 -15 -187 -15 -717 l0 -648 200 0 199 0 3 653 3 653 25 37
c14 21 43 50 64 65 38 26 45 27 184 30 l145 4 -8 -29 c-5 -15 -10 -340 -12
-720 l-4 -693 201 0 200 0 0 643 c0 386 4 656 10 676 13 45 48 96 80 114 14 8
54 25 90 37 186 61 323 198 392 390 l23 65 3 626 c3 701 2 712 -64 849 -51
103 -161 213 -264 264 -242 118 -525 75 -705 -109 -119 -121 -174 -236 -311
-647 l-79 -238 -117 0 -118 0 0 258 c0 187 -4 276 -15 327 -47 225 -235 413
-460 460 -101 21 -749 21 -850 0 -225 -47 -413 -235 -460 -460 -11 -51 -15
-140 -15 -327 l0 -258 -118 0 -117 0 -79 238 c-137 411 -192 526 -311 647
-143 146 -353 205 -565 159z m2496 -416 c21 -15 50 -44 64 -65 25 -36 25 -38
28 -300 l3 -263 -500 0 -501 0 0 243 c0 133 5 258 10 279 13 44 81 115 124
127 17 6 188 9 382 8 l351 -2 39 -27z"/>
</g>
</svg>